<svg xmlns="http://www.w3.org/2000/svg" version="1.2" viewBox="0 46.6 123.5 22.4">
	<title>JBM_JB1_logo_vCMY_NoFee_MidBlue-svg</title>
	<style>
		.s0 { fill: #0000aa } 
	</style>
	<g id="Layer">
		<path id="Layer" class="s0" d="m2.1 47.2h2.5v2.5h-2.5zm0 5h2.5v13.4c0 2-1.5 3.4-3.6 3.4h-1v-2.3h0.7c0.9 0 1.4-0.4 1.4-1.4z"/>
		<path id="Layer" fill-rule="evenodd" class="s0" d="m8.8 59.4c0 2 1.3 3 3 3 1 0 2-0.4 2.7-1.2l1.9 1.6c-1.3 1.4-2.9 1.9-4.5 1.9-2.6 0-5.6-1.2-5.6-6.2 0-4.8 2.7-6.4 5.1-6.4 2.8 0 5.2 2 5.2 5.2v2.1zm5.2-2.1c-0.1-1.9-1.1-2.9-2.6-2.9-1.5 0-2.6 1.1-2.7 2.9z"/>
		<path id="Layer" class="s0" d="m18.6 48.5h2.5v3.7h1.9v2h-1.9v7.2c0 0.7 0.3 0.9 0.9 0.9h0.9v2.3h-1.3c-1.7 0-3-1.1-3-3v-7.4h-1.3v-2h1.3z"/>
		<path id="Layer" fill-rule="evenodd" class="s0" d="m24.5 47.2h6.8c3.5 0 5.3 2 5.3 4.7 0 1.5-0.5 2.8-2.6 3.7v0.1c1.9 0.4 2.9 2.3 2.9 4 0 3-2.3 4.9-4.9 4.9h-7.5zm2.7 2.4v4.9h3.8c2 0 2.9-1.1 2.9-2.4 0-1.4-0.9-2.5-2.9-2.5 0 0-3.8 0-3.8 0zm0 7.3v5.2h4.1c2 0 2.8-1.2 2.8-2.6 0-1.4-0.8-2.6-2.8-2.6z"/>
		<path id="Layer" class="s0" d="m38.3 47.2h2.5v14.2c0 0.6 0.3 0.8 0.9 0.8h0.9v2.4h-1.1c-1.9 0-3.3-0.8-3.3-3z"/>
		<path id="Layer" class="s0" d="m43.7 52.2h2.5v7.4c0 1.7 1 2.7 2.4 2.7 1.5 0 2.5-1 2.5-2.7v-7.4h2.5v12.4h-2.5v-1.3c-0.8 1-1.9 1.4-3.2 1.4-2 0-4.2-1.4-4.2-4.3v-8.2z"/>
		<path id="Layer" fill-rule="evenodd" class="s0" d="m57.6 59.4c0 2 1.2 3 2.9 3 1 0 2-0.4 2.8-1.2l1.8 1.6c-1.3 1.4-2.8 1.9-4.5 1.9-2.6 0-5.6-1.2-5.6-6.2 0-4.8 2.7-6.4 5.2-6.4 2.7 0 5.1 2 5.1 5.2v2.1zm5.2-2.1c0-1.9-1.1-2.9-2.6-2.9-1.5 0-2.6 1.1-2.6 2.9z"/>
		<path id="Layer" fill-rule="evenodd" class="s0" d="m122.3 49.1c-0.6 0-1.1-0.4-1.1-1.1 0-0.6 0.5-1 1.1-1 0.6 0 1.2 0.4 1.2 1 0 0.7-0.6 1.1-1.2 1.1zm0.9-1c0-0.5-0.4-0.9-0.9-0.9-0.5 0-0.9 0.4-0.9 0.9 0 0.4 0.4 0.8 0.9 0.8 0.5 0 0.9-0.4 0.9-0.8zm-1.3-0.7h0.5q0.5 0 0.5 0.3c0 0.3-0.2 0.4-0.4 0.4l0.4 0.5h-0.2l-0.4-0.4h-0.1v0.4h-0.3zm0.2 0.6h0.2c0.1 0 0.3 0 0.3-0.1 0-0.2-0.1-0.2-0.3-0.2h-0.2z"/>
		<path id="Layer" fill-rule="evenodd" class="s0" d="m120 47.1v17.5h-1.9v-2c-1.1 1.4-2.7 2.4-4.9 2.4-3.9 0-6.4-2.9-6.4-6.6 0-3.7 2.5-6.6 6.4-6.6 2.2 0 3.8 0.9 4.9 2.4v-7.1zm-1.9 11.4c0-2.7-1.8-4.8-4.7-4.8-3 0-4.6 2.1-4.6 4.8 0 2.6 1.7 4.7 4.6 4.7 2.9 0 4.7-2.1 4.7-4.7zm-11.8-6.4v2q-0.5-0.1-1-0.1c-2.2 0-3.9 1.2-3.9 4.6v6h-2v-12.4h2v2.2c1-1.9 2.8-2.4 4.1-2.4 0.3 0 0.5 0 0.8 0.1zm-11.4 12.5l-0.5-1.7c-1.1 1.5-2.8 2.1-4.6 2.1-2.4 0-4.2-1.4-4.2-3.5 0-2.1 1.7-3.3 4.1-3.7 4.1-0.8 4.6-1 4.6-2.3 0-1.5-1.5-2.1-3.1-2.1-1.9 0-3.5 1-3.5 3.1l-1.8-0.7c0.2-2.4 2.5-4 5.3-4 3.2 0 5.1 1.5 5.1 4.1v6.5l0.4 2.3zm-0.6-5v-1.5c-0.4 0.4-1.2 0.5-4 1.1-1.5 0.2-2.6 0.8-2.6 2.1 0 1.2 0.9 2.1 2.5 2.1 2.6 0 4.1-1.7 4.1-3.8zm-10.4-8.7l-1.6 1.2c-1.1-2.3-3.4-3.6-6-3.6-3.7 0-7.2 2.6-7.2 7.4 0 4.7 3.4 7.3 7.2 7.3 2.7 0 5-1.3 6-3.6l1.7 1.2c-1.5 2.5-4.4 4.2-7.8 4.2-4.8 0-9.1-3.5-9.1-9.2 0-5.8 4.4-9.2 9.2-9.2 3.1 0 6.1 1.5 7.6 4.3z"/>
	</g>
</svg>