<svg width="55" height="24" fill="none" xmlns="http://www.w3.org/2000/svg"><g clip-path="url(#a)" fill="#00205B"><path d="M1.661 4.797h1.514v7.887c0 1.226-.92 2.048-2.197 2.048H.4v-1.383H.83c.519 0 .846-.233.846-.78V4.797H1.66Zm.015-2.96h1.513v1.468H1.661l.015-1.467ZM5.664 7.793c.03-1.122.698-1.703 1.586-1.703.889 0 1.543.592 1.587 1.703H5.653h.011Zm4.675 1.211V7.793a2.879 2.879 0 0 0-.198-1.179 2.952 2.952 0 0 0-.662-1.007 3.062 3.062 0 0 0-1.019-.672 3.142 3.142 0 0 0-1.21-.228c-1.447 0-3.1.923-3.1 3.767 0 3.002 1.795 3.725 3.338 3.725.514.01 1.025-.09 1.495-.295.47-.205.886-.508 1.22-.888l-1.097-.91a2.4 2.4 0 0 1-1.647.708c-1.04 0-1.795-.609-1.795-1.807l4.675-.003ZM11.552 2.576h1.505v2.221h1.097V5.92h-1.097v4.26c0 .405.165.562.532.562h.58v1.385h-.794c-1.053 0-1.823-.65-1.823-1.806V5.922h-.759V4.8h.759V2.576ZM19.19 7.554c1.187 0 1.72.735 1.72 1.543 0 .808-.533 1.545-1.72 1.545h-2.463V7.557h2.463v-.003Zm-4.052 4.564h4.437c.394.006.785-.066 1.15-.212a2.9 2.9 0 0 0 .97-.636c.274-.273.489-.598.63-.955.14-.357.204-.738.188-1.12 0-1.038-.58-2.106-1.737-2.367V6.8c1.233-.533 1.56-1.355 1.56-2.208 0-1.615-1.07-2.757-3.132-2.757h-4.08v10.28l.014.003Zm3.901-8.895c1.158 0 1.708.68 1.708 1.473 0 .794-.55 1.473-1.708 1.473h-2.315V3.224h2.315ZM23.381 1.838h1.514v8.386c0 .332.194.505.564.505h.518v1.386h-.665c-1.1 0-1.93-.463-1.93-1.776V1.838ZM26.614 4.797h1.514v4.359c0 .996.637 1.573 1.5 1.573.862 0 1.482-.577 1.482-1.573V4.797h1.513v7.318H31.11v-.78h-.03c-.232.28-.528.505-.865.655-.337.15-.706.223-1.077.212a2.604 2.604 0 0 1-.987-.198 2.538 2.538 0 0 1-.83-.555 2.447 2.447 0 0 1-.54-.825 2.39 2.39 0 0 1-.167-.963V4.797ZM34.95 7.793c.03-1.122.698-1.703 1.586-1.703.89 0 1.543.592 1.59 1.703h-3.184.008Zm4.678 1.211V7.793a2.88 2.88 0 0 0-.199-1.182 2.953 2.953 0 0 0-.665-1.008 3.063 3.063 0 0 0-1.023-.672 3.142 3.142 0 0 0-1.213-.224c-1.447 0-3.1.923-3.1 3.767 0 3.002 1.794 3.725 3.337 3.725.515.01 1.026-.09 1.495-.296.47-.204.886-.508 1.22-.888l-1.097-.908a2.4 2.4 0 0 1-1.647.707c-1.039 0-1.794-.61-1.794-1.807l4.686-.003ZM5.676 15.139l.868 2.039.906 2.272.918-2.26.868-2.051h.993l-2.275 5.23h-.976l-2.283-5.23h.98ZM15.23 20.358l-.023-.92c-.21.326-.502.594-.85.778-.348.183-.74.276-1.135.269-1.549 0-2.759-1.035-2.759-2.738 0-1.764 1.245-2.726 2.77-2.726.403-.023.805.065 1.158.255.354.189.645.47.84.813v-.95h.868v5.22h-.869Zm-3.91-2.577c-.01.25.032.501.126.736.093.234.235.447.417.627.181.179.4.32.64.415.24.094.497.14.756.135 2.605 0 2.605-3.86 0-3.849a1.93 1.93 0 0 0-.767.13 1.88 1.88 0 0 0-.646.42c-.183.183-.324.4-.415.64-.09.238-.128.492-.111.746ZM21.755 19.683a2.71 2.71 0 0 1-.913.602 2.779 2.779 0 0 1-1.085.2c-1.537 0-2.813-1.005-2.813-2.738s1.245-2.726 2.813-2.726a2.77 2.77 0 0 1 1.06.198c.335.134.64.333.894.584l-.579.561a1.979 1.979 0 0 0-.822-.443 2.02 2.02 0 0 0-.94-.022c-.31.067-.6.207-.843.406-.242.2-.431.454-.55.74a1.845 1.845 0 0 0 .188 1.76c.176.257.414.468.694.616a2.008 2.008 0 0 0 1.672.09c.242-.097.461-.24.645-.42l.579.58v.012ZM26.924 20.359l-.02-.92a2.265 2.265 0 0 1-.848.775 2.35 2.35 0 0 1-1.132.27c-1.549 0-2.759-1.034-2.759-2.737 0-1.764 1.242-2.726 2.77-2.726.403-.023.804.065 1.157.254.354.19.644.472.838.815v-.951h.868v5.22h-.874Zm-3.905-2.578c-.01.251.034.502.127.736.094.234.236.448.418.627.182.18.4.32.64.415.24.095.498.14.758.135 2.605 0 2.605-3.86 0-3.848a1.93 1.93 0 0 0-.768.13 1.883 1.883 0 0 0-.647.42c-.183.182-.324.4-.415.638-.091.239-.13.493-.113.747ZM30.66 15.116h1.66v.74h-1.67v2.853c0 .614.196 1.004.85 1.004.26-.013.512-.08.741-.199l.264.718a2.62 2.62 0 0 1-1.048.253c-1.158.033-1.702-.634-1.702-1.776v-2.852h-1.068v-.74h1.08v-1.403l.905-.096-.011 1.498ZM33.813 12.982a.595.595 0 0 1 .422.157.56.56 0 0 1-.191.933.58.58 0 0 1-.231.032.566.566 0 0 1-.419-.156.531.531 0 0 1-.16-.405.527.527 0 0 1 .163-.403.562.562 0 0 1 .416-.158Zm-.457 2.165h.891v5.212h-.891v-5.212ZM41.972 15.147h.82l.043.816c.192-.297.461-.54.78-.706.32-.165.679-.247 1.04-.236 1.344 0 2.293.867 2.293 2.443v2.895h-.894v-2.887c0-1.046-.524-1.638-1.56-1.638-.982 0-1.624.794-1.624 1.725v2.805h-.898v-5.217ZM51.475 16.3a2.072 2.072 0 0 0-.7-.401 2.12 2.12 0 0 0-.805-.107c-.753 0-1.34.244-1.34.763s.686.687 1.351.771c.97.115 2.29.306 2.258 1.596-.032 1.058-1.036 1.563-2.246 1.563-.906 0-1.832-.21-2.431-.97l.532-.581c.47.58 1.253.76 1.908.76.602 0 1.331-.171 1.363-.805 0-.561-.62-.75-1.447-.842-1.036-.106-2.148-.4-2.148-1.49 0-1.087 1.135-1.533 2.191-1.533a2.951 2.951 0 0 1 2.026.698l-.512.578ZM39.396 17.795c0 .236-.072.466-.207.662a1.222 1.222 0 0 1-.553.44c-.225.09-.472.113-.711.067a1.243 1.243 0 0 1-.63-.327 1.18 1.18 0 0 1-.336-.611 1.158 1.158 0 0 1 .071-.69 1.2 1.2 0 0 1 .455-.534 1.259 1.259 0 0 1 1.552.151c.23.224.36.526.36.842Zm1.76.067a2.83 2.83 0 0 1-.486 1.585c-.318.472-.77.843-1.303 1.069l-1.184 1.646L37 20.53a2.977 2.977 0 0 1-1.248-.959 2.819 2.819 0 0 1-.282-2.962 2.927 2.927 0 0 1 1.045-1.163 3.07 3.07 0 0 1 3.066-.137c.476.248.874.616 1.151 1.066.278.45.424.963.424 1.487Zm-1.253-.067c0-.333-.102-.658-.293-.935a1.726 1.726 0 0 0-.78-.62 1.789 1.789 0 0 0-1.003-.096 1.755 1.755 0 0 0-.889.46 1.668 1.668 0 0 0-.475.863c-.067.326-.033.664.099.972.131.308.354.57.64.755a1.764 1.764 0 0 0 2.19-.211c.323-.316.505-.743.505-1.188h.006ZM53.099 15.975a.507.507 0 0 1-.276-.08.484.484 0 0 1-.184-.215.466.466 0 0 1 .106-.523.5.5 0 0 1 .54-.105c.09.036.168.097.222.176a.469.469 0 0 1-.06.605.503.503 0 0 1-.348.142Zm0-.87a.412.412 0 0 0-.226.062.394.394 0 0 0-.152.173.379.379 0 0 0 .081.428.406.406 0 0 0 .44.088.4.4 0 0 0 .182-.144.381.381 0 0 0 .04-.365.382.382 0 0 0-.213-.211.405.405 0 0 0-.152-.03Zm.101.648-.107-.205h-.07v.205h-.098v-.516h.2a.171.171 0 0 1 .158.095c.01.02.015.04.015.062a.14.14 0 0 1-.029.088.148.148 0 0 1-.078.052l.119.219h-.11Zm-.087-.435h-.09v.155h.09a.084.084 0 0 0 .067-.017.078.078 0 0 0 .03-.06.077.077 0 0 0-.03-.061.083.083 0 0 0-.067-.017Z"/></g><defs><clipPath id="a"><path fill="#fff" transform="translate(0 1.5)" d="M0 0h54.115v21H0z"/></clipPath></defs></svg>