<?xml version="1.0" encoding="UTF-8"?>
<svg width="32px" height="32px" viewBox="0 0 32 32" version="1.1" xmlns="http://www.w3.org/2000/svg" xmlns:xlink="http://www.w3.org/1999/xlink">
    <title>Silhouette White</title>
    <g id="Silhouette-White" stroke="none" stroke-width="1" fill="none" fill-rule="evenodd">
        <g id="Iconography/General/Silhouette/White" fill="#FFFFFF">
            <g id="Group-10">
                <path d="M16,19 C21.5228475,19 26,23.2137387 26,28.4116488 C26,28.4540712 25.0785316,28.4873878 23.631176,28.5115985 L23.6251427,26.9419639 C22.9245719,23.6194325 19.8951314,21.1185464 16.2606142,21.0040231 L16,20.9999224 C12.3419003,20.9999224 9.24652543,23.4179138 8.43166878,26.6946248 L8.39348396,28.5120093 C6.93194315,28.4877652 6,28.4543117 6,28.4116488 C6,23.2137387 10.4771525,19 16,19 Z" id="Path" fill-rule="nonzero"></path>
                <path d="M16,6.5 C12.1340068,6.5 9,9.63400675 9,13.5 C9,17.3659932 12.1340068,20.5 16,20.5 C19.8659932,20.5 23,17.3659932 23,13.5 C23,9.63400675 19.8659932,6.5 16,6.5 Z M16,8.5 C18.7614237,8.5 21,10.7385763 21,13.5 C21,16.2614237 18.7614237,18.5 16,18.5 C13.2385763,18.5 11,16.2614237 11,13.5 C11,10.7385763 13.2385763,8.5 16,8.5 Z" id="Oval-Copy" fill-rule="nonzero"></path>
                <path d="M16,0 C7.163444,0 0,7.163444 0,16 C0,24.836556 7.163444,32 16,32 C24.836556,32 32,24.836556 32,16 C32,7.163444 24.836556,0 16,0 Z M16,2 C23.7319865,2 30,8.2680135 30,16 C30,23.7319865 23.7319865,30 16,30 C8.2680135,30 2,23.7319865 2,16 C2,8.2680135 8.2680135,2 16,2 Z" id="Oval" fill-rule="nonzero"></path>
            </g>
        </g>
    </g>
</svg>