<svg width="42" height="24" fill="none" xmlns="http://www.w3.org/2000/svg"><path fill-rule="evenodd" clip-rule="evenodd" d="M1.323 6.582H2.89V5H1.323v1.582Zm0 1.597H2.89v8.474c0 1.318-.953 2.202-2.276 2.202H0v-1.489h.446c.538 0 .877-.248.877-.837v-8.35Zm9.008 4.528v-1.303c0-2.031-1.491-3.318-3.214-3.318-1.507 0-3.214.993-3.214 4.047 0 3.225 1.861 4 3.46 4 1.046 0 2.046-.372 2.814-1.27l-1.138-.978c-.46.481-1.107.76-1.707.76-1.076 0-1.86-.651-1.86-1.938h4.859Zm-4.86-1.303c.032-1.194.723-1.83 1.646-1.83.923 0 1.6.636 1.646 1.83H5.472Zm6.103-5.613h1.569v2.388h1.137v1.21h-1.137v4.574c0 .434.169.589.553.589h.585v1.489h-.816c-1.091 0-1.89-.698-1.89-1.939V9.388h-.785v-1.21h.784V5.792Zm7.766.698c1.2 0 1.768.729 1.768 1.582 0 .868-.568 1.581-1.768 1.581h-2.399V6.49h2.399Zm-4.06 9.551h4.614c1.646 0 3.045-1.224 3.045-3.131 0-1.117-.584-2.265-1.784-2.543v-.032c1.276-.574 1.615-1.457 1.615-2.372C22.77 6.225 21.662 5 19.525 5H15.28v11.04Zm4.214-4.9c1.23 0 1.784.792 1.784 1.66 0 .868-.554 1.66-1.784 1.66H16.94v-3.32h2.553ZM23.84 5h1.569v9.009c0 .357.2.543.584.543h.538v1.488h-.691c-1.138 0-2-.496-2-1.907V5Zm3.353 3.179h1.568v4.683c0 1.07.661 1.69 1.553 1.69.877 0 1.538-.62 1.538-1.69V8.178h1.569v7.861h-1.569v-.837h-.03c-.493.62-1.2.93-2.015.93-1.23 0-2.615-.946-2.615-2.73V8.18Zm13.498 4.528v-1.303c0-2.031-1.491-3.318-3.214-3.318-1.507 0-3.214.993-3.214 4.047 0 3.225 1.86 4 3.46 4 1.046 0 2.045-.372 2.814-1.27l-1.137-.978c-.462.481-1.108.76-1.707.76-1.077 0-1.861-.651-1.861-1.938h4.859Zm-4.86-1.303c.031-1.194.723-1.83 1.646-1.83.923 0 1.6.636 1.646 1.83h-3.291Zm5.308-2.731h.096c.111 0 .213-.008.213-.114 0-.094-.092-.116-.182-.116h-.127v.23Zm-.138-.357h.307c.185 0 .278.075.278.243 0 .163-.094.224-.207.238l.232.334h-.161l-.232-.33h-.079v.33h-.138v-.815Zm.263.987c.312 0 .544-.234.544-.56 0-.327-.232-.56-.544-.56-.313 0-.545.233-.545.56 0 .326.232.56.545.56Zm0-1.26a.696.696 0 0 1 .694.7.695.695 0 0 1-1.186.493.698.698 0 0 1-.15-.76.697.697 0 0 1 .642-.433Z" fill="#00205B"/></svg>