<?xml version="1.0" encoding="UTF-8"?>
<svg id="Layer_1" xmlns="http://www.w3.org/2000/svg" version="1.1" viewBox="0 0 600 300">
  <!-- Generator: Adobe Illustrator 29.7.1, SVG Export Plug-In . SVG Version: 2.1.1 Build 8)  -->
  <defs>
    <style>
      .st0 {
        fill: #000064;
      }
    </style>
  </defs>
  <path class="st0" d="M582.9,104.6v2h-4.3v11.1h-2.2v-11.1h-4.3v-2h10.9ZM584.4,104.6h3l3.8,10.5,3.8-10.5h3v13.2h-2.2v-9.8l-3.6,9.7h-2l-3.5-9.7v9.8h-2.2v-13.2h0Z"/>
  <polygon class="st0" points="105.4 107 111.8 107 111.8 57.3 130.5 57.3 130.5 51.5 86.7 51.5 86.7 57.3 105.4 57.3 105.4 107"/>
  <path class="st0" d="M146.9,82.7h13.2l16.9,24.4h7.6l-17.6-24.5c10.1-.9,15.6-7.2,15.6-15.4.1-8.8-6.3-15.6-17.9-15.6h-24.2v55.5h6.4v-24.4h0ZM146.9,57.3h17.6c7.5,0,11.7,3.9,11.7,9.9s-4.3,9.8-11.7,9.8h-17.6v-19.8Z"/>
  <path class="st0" d="M214.5,108.2c12.2,0,20.1-7.5,20.1-20.3v-36.3h-6.6v35.9c0,8.9-4.4,14.8-13.5,14.8s-13.6-5.8-13.6-14.8v-35.9h-6.4v36.3c0,12.8,7.6,20.3,20.1,20.3h0Z"/>
  <polygon class="st0" points="287.1 101.3 256.3 101.3 256.3 81.7 284.8 81.7 284.8 75.9 256.3 75.9 256.3 57.3 287 57.3 287 51.5 249.9 51.5 249.9 107 287.1 107 287.1 101.3"/>
  <path class="st0" d="M341,90.4c0-5.5-3.5-10.7-8.5-12.7,3.8-2.2,6.4-6.6,6.4-10.7,0-10.2-7.6-15.4-18.6-15.4h-22.3v55.5h23.2c12.3,0,19.8-5.9,19.8-16.7ZM309.9,61.9h10.4c4.3,0,6.7,2.2,6.7,5.8s-2.4,5.9-6.9,5.9h-10.3v-11.7h0ZM309.7,83.7h12.2c4.1,0,7,2.6,7,6.5.1,3.9-2.4,6.5-7.5,6.5h-11.7s0-13,0-13Z"/>
  <polygon class="st0" points="389.8 96.2 363.9 96.2 363.9 51.5 352 51.5 352 107 389.8 107 389.8 96.2"/>
  <path class="st0" d="M419,108.2c13.2,0,21.6-7.3,21.6-20.2v-36.5h-12v35.9c0,6.3-3.2,10.4-9.7,10.4s-9.7-4-9.7-10.4v-35.9h-11.7v36.5c0,12.7,8.1,20.2,21.6,20.2h0Z"/>
  <polygon class="st0" points="493.1 96.6 465.4 96.6 465.4 84.4 491.1 84.4 491.1 74.2 465.4 74.2 465.4 61.9 493.1 61.9 493.1 51.5 453.5 51.5 453.5 107 493.1 107 493.1 96.6"/>
  <path class="st0" d="M58.7,85.6l-25.3,14.7v28.5H12.9v21.8h20.5v59c0,12.8,3.2,22.1,9.7,27.9,6.4,5.8,16.1,8.7,28.8,8.7s5.5-.2,9.4-.7c3.9-.4,6.6-1,8.3-1.8v-22.2c-2.2.4-4.6.8-7.3,1.2-2.6.4-4.8.5-6.6.5-6.2,0-10.5-1.1-13.1-3.4-2.6-2.3-3.8-6.8-3.8-13.5v-55.7h32.6v-21.8h-32.6v-43.1h0Z"/>
  <path class="st0" d="M141.5,130.8c-5.8,3.2-10.7,8.6-14.6,16.4v-18.5h-25.3v114.5h25.3v-55.3c0-12.3,2.7-21.6,8-27.9,5.4-6.2,12.6-9.3,21.7-9.3s8.6.7,13,2v-25.1c-2.8-1-6.2-1.5-10.1-1.5-6.2,0-12.1,1.6-17.9,4.7h0Z"/>
  <path class="st0" d="M268.4,142.6c-10-11.9-23.3-17.8-39.8-17.8s-21.4,2.7-30.2,8-15.6,12.7-20.5,22c-4.8,9.3-7.3,19.7-7.3,31.2s2.5,21.6,7.4,30.8c4.9,9.2,11.7,16.5,20.5,21.8s18.8,7.9,30.1,7.9,16.9-1.7,23.9-5.2c7-3.4,11.4-8.2,16-14.2v16.1h25.3v-114.5h-25.3v13.9h0ZM264.6,205.3c-3.2,5.6-7.5,10-12.9,13.2-5.4,3.1-11.6,4.7-18.5,4.7-10.7,0-19.5-3.5-26.2-10.4-6.7-6.9-10.1-15.9-10.1-26.9s3.4-20.3,10.1-27.4c6.7-7.2,15.5-10.8,26.2-10.8s13.1,1.6,18.5,4.8c5.4,3.2,9.7,7.7,12.9,13.6,3.2,5.9,4.7,12.4,4.7,19.8s-1.6,13.8-4.7,19.4h0Z"/>
  <polygon class="st0" points="395 128.7 362 214.1 329 128.7 301 128.7 348.6 243.2 375.4 243.2 422.3 128.7 395 128.7"/>
  <path class="st0" d="M502.3,132.1c-8.3-4.9-17.9-7.4-28.9-7.4s-20.7,2.6-29.5,7.9c-8.8,5.3-15.7,12.6-20.6,22-4.9,9.4-7.4,19.9-7.4,31.5s2.4,22.2,7.3,31.4c4.8,9.2,11.7,16.3,20.6,21.4s19.3,7.6,31.1,7.6,21-2.2,30.1-6.5c9-4.3,16.2-10.7,21.5-19l-18.3-16.3c-3.1,7-7.3,12.2-12.5,15.5-5.3,3.3-12,5-20,5s-16.6-2.6-22.3-7.7c-5.8-5.1-9.4-13-10.7-23.6h85c.4-4,.7-7.3.7-10.1,0-11.6-2.2-21.9-6.7-30.8-4.5-8.9-10.9-15.9-19.2-20.8h0ZM442.8,175.4c1.5-9.5,4.9-16.8,10.4-21.8,5.4-5,12-7.5,19.8-7.5s15.5,2.6,20.5,7.9c5,5.3,7.5,12.4,7.5,21.4h-58.1Z"/>
  <polygon class="st0" points="539.7 85.6 539.7 243.2 565 243.2 565 99.9 539.7 85.6"/>
</svg>