<svg version="1.2" xmlns="http://www.w3.org/2000/svg" viewBox="0 0 278 120" width="278" height="120">
	<title>replacement (2)-svg</title>
	<style>
		.s0 { fill: #0000aa } 
	</style>
	<g id="Layer">
		<g id="Layer">
			<path id="Layer" fill-rule="evenodd" class="s0" d="m29.9 44h-12.8v34.5h-4.4v-34.5h-12.7v-4h29.9zm20.1 17.6h-9v16.9h-4.4v-38.5h16.5c7.9 0 12.3 4.7 12.3 10.8 0 5.8-3.7 10.1-10.6 10.7l12 17h-5.3zm-9-3.9h12c5.1 0 8-2.7 8-6.8 0-4.2-2.8-6.9-8-6.9h-12zm36.8-17.6v24.8c0 6.3 3 10.3 9.4 10.3 6.2 0 9.2-4 9.2-10.3v-24.8h4.4v25.2c0 8.9-5.3 14.1-13.6 14.1-8.5 0-13.8-5.2-13.8-14.1v-25.2zm58.7 34.5v4h-25.4v-38.5h25.3v3.9h-20.9v13h19.4v4h-19.4v13.6zm36.8-7.7c0 7.5-5.1 11.7-13.5 11.7h-15.9v-38.5h15.2c7.5 0 12.7 3.6 12.7 10.7 0 2.9-1.7 6-4.3 7.4 3.3 1.4 5.7 5.1 5.8 8.7zm-21.3-19.6v8h7c3.1 0 4.8-1.4 4.8-4 0-2.5-1.8-4-4.7-4zm13.2 19.5c0-2.6-2-4.4-4.8-4.4h-8.4v8.9h8c3.5 0 5.1-1.8 5.2-4.5zm23.7 4.3h17.7v7.5h-25.7v-38.6l8 0.1zm30.9-31.1v24.9c0 4.4 2.2 7.2 6.6 7.2 4.4 0 6.6-2.8 6.6-7.2v-24.9h8.1v25.3c0 9-5.7 14-14.7 14-9.2 0-14.7-5.2-14.7-14v-25.3zm57.3 31.3v7.2h-27.1v-38.5h27v7.3h-18.9v8.4h17.5v7.1h-17.5v8.5z"/>
		</g>
	</g>
</svg>